<svg xmlns="http://www.w3.org/2000/svg" fill="none" viewBox="2.56 9.64 90.89 56.68">
<path d="M3.136 33V29.928H7.84V12.712H3.136V9.64H16.064V12.712H11.36V29.928H16.064V33H3.136ZM28.9155 33.32C27.4648 33.32 26.1848 33.0533 25.0755 32.52C23.9875 31.9653 23.1448 31.176 22.5475 30.152C21.9715 29.1067 21.6835 27.8907 21.6835 26.504V21.896C21.6835 20.488 21.9715 19.272 22.5475 18.248C23.1448 17.224 23.9875 16.4453 25.0755 15.912C26.1848 15.3573 27.4648 15.08 28.9155 15.08C31.0275 15.08 32.7235 15.6347 34.0035 16.744C35.2835 17.8533 35.9555 19.368 36.0195 21.288H32.5635C32.4995 20.2853 32.1475 19.5067 31.5075 18.952C30.8675 18.3973 30.0035 18.12 28.9155 18.12C27.7422 18.12 26.8142 18.4507 26.1315 19.112C25.4488 19.752 25.1075 20.6693 25.1075 21.864V26.504C25.1075 27.6987 25.4488 28.6267 26.1315 29.288C26.8142 29.9493 27.7422 30.28 28.9155 30.28C30.0035 30.28 30.8675 30.0027 31.5075 29.448C32.1475 28.8933 32.4995 28.1147 32.5635 27.112H36.0195C35.9555 29.032 35.2835 30.5467 34.0035 31.656C32.7235 32.7653 31.0275 33.32 28.9155 33.32ZM47.975 33.32C46.5457 33.32 45.287 33.0427 44.199 32.488C43.1323 31.912 42.311 31.112 41.735 30.088C41.159 29.064 40.871 27.8693 40.871 26.504V21.896C40.871 20.5093 41.159 19.3147 41.735 18.312C42.311 17.288 43.1323 16.4987 44.199 15.944C45.287 15.368 46.5457 15.08 47.975 15.08C49.4257 15.08 50.6843 15.368 51.751 15.944C52.8177 16.4987 53.639 17.288 54.215 18.312C54.791 19.3147 55.079 20.5093 55.079 21.896V25.032H44.199V26.504C44.199 27.8053 44.519 28.7973 45.159 29.48C45.8203 30.1627 46.7697 30.504 48.007 30.504C49.0097 30.504 49.8203 30.3333 50.439 29.992C51.0577 29.6293 51.4417 29.1067 51.591 28.424H55.015C54.759 29.9173 53.991 31.112 52.711 32.008C51.431 32.8827 49.8523 33.32 47.975 33.32ZM51.751 22.952V21.864C51.751 20.584 51.431 19.592 50.791 18.888C50.151 18.184 49.2123 17.832 47.975 17.832C46.759 17.832 45.8203 18.184 45.159 18.888C44.519 19.592 44.199 20.5947 44.199 21.896V22.696L52.007 22.664L51.751 22.952ZM65.9145 33.32C64.1438 33.32 62.7252 32.7227 61.6585 31.528C60.5918 30.3333 60.0585 28.7227 60.0585 26.696V21.736C60.0585 19.688 60.5918 18.0667 61.6585 16.872C62.7252 15.6773 64.1438 15.08 65.9145 15.08C67.3652 15.08 68.5172 15.4853 69.3705 16.296C70.2238 17.0853 70.6505 18.1733 70.6505 19.56L69.9145 18.76H70.7145L70.6185 14.664V9.64H74.0745V33H70.6505V29.64H69.9145L70.6505 28.84C70.6505 30.2267 70.2238 31.3253 69.3705 32.136C68.5172 32.9253 67.3652 33.32 65.9145 33.32ZM67.0985 30.312C68.1865 30.312 69.0398 29.9813 69.6585 29.32C70.2985 28.6373 70.6185 27.6987 70.6185 26.504V21.896C70.6185 20.7013 70.2985 19.7733 69.6585 19.112C69.0398 18.4293 68.1865 18.088 67.0985 18.088C65.9678 18.088 65.0825 18.4187 64.4425 19.08C63.8025 19.72 63.4825 20.6587 63.4825 21.896V26.504C63.4825 27.7413 63.8025 28.6907 64.4425 29.352C65.0825 29.992 65.9678 30.312 67.0985 30.312Z" fill="#F9EBDB"/>
<path d="M9.728 66.32C8.27733 66.32 7.008 66.0533 5.92 65.52C4.85333 64.9653 4.02133 64.176 3.424 63.152C2.848 62.1067 2.56 60.8907 2.56 59.504V49.136C2.56 47.728 2.848 46.512 3.424 45.488C4.02133 44.464 4.85333 43.6853 5.92 43.152C7.008 42.5973 8.27733 42.32 9.728 42.32C11.1787 42.32 12.4373 42.5973 13.504 43.152C14.5707 43.7067 15.392 44.496 15.968 45.52C16.5653 46.5227 16.864 47.728 16.864 49.136H13.408C13.408 47.92 13.088 46.992 12.448 46.352C11.808 45.712 10.9013 45.392 9.728 45.392C8.55467 45.392 7.63733 45.712 6.976 46.352C6.336 46.992 6.016 47.9093 6.016 49.104V59.504C6.016 60.6987 6.336 61.6267 6.976 62.288C7.63733 62.928 8.55467 63.248 9.728 63.248C10.9013 63.248 11.808 62.928 12.448 62.288C13.088 61.6267 13.408 60.6987 13.408 59.504H16.864C16.864 60.8907 16.5653 62.096 15.968 63.12C15.392 64.144 14.5707 64.9333 13.504 65.488C12.4373 66.0427 11.1787 66.32 9.728 66.32ZM27.0275 66.32C25.1928 66.32 23.7422 65.8507 22.6755 64.912C21.6302 63.952 21.1075 62.6507 21.1075 61.008C21.1075 59.344 21.6622 58.0427 22.7715 57.104C23.9022 56.144 25.4488 55.664 27.4115 55.664H32.3075V54.032C32.3075 53.072 32.0088 52.3253 31.4115 51.792C30.8142 51.2587 29.9715 50.992 28.8835 50.992C27.9235 50.992 27.1235 51.2053 26.4835 51.632C25.8435 52.0373 25.4702 52.5813 25.3635 53.264H21.9715C22.1635 51.6853 22.8888 50.4267 24.1475 49.488C25.4275 48.5493 27.0382 48.08 28.9795 48.08C31.0702 48.08 32.7235 48.6133 33.9395 49.68C35.1555 50.7253 35.7635 52.1547 35.7635 53.968V66H32.4035V62.768H31.8275L32.4035 62.128C32.4035 63.408 31.9128 64.432 30.9315 65.2C29.9502 65.9467 28.6488 66.32 27.0275 66.32ZM28.0515 63.664C29.2888 63.664 30.3022 63.3547 31.0915 62.736C31.9022 62.096 32.3075 61.2853 32.3075 60.304V58H27.4755C26.5795 58 25.8648 58.2453 25.3315 58.736C24.8195 59.2267 24.5635 59.8987 24.5635 60.752C24.5635 61.648 24.8728 62.3627 25.4915 62.896C26.1102 63.408 26.9635 63.664 28.0515 63.664ZM48.103 66.32C46.6523 66.32 45.3723 66.0533 44.263 65.52C43.175 64.9653 42.3323 64.176 41.735 63.152C41.159 62.1067 40.871 60.8907 40.871 59.504V54.896C40.871 53.488 41.159 52.272 41.735 51.248C42.3323 50.224 43.175 49.4453 44.263 48.912C45.3723 48.3573 46.6523 48.08 48.103 48.08C50.215 48.08 51.911 48.6347 53.191 49.744C54.471 50.8533 55.143 52.368 55.207 54.288H51.751C51.687 53.2853 51.335 52.5067 50.695 51.952C50.055 51.3973 49.191 51.12 48.103 51.12C46.9297 51.12 46.0017 51.4507 45.319 52.112C44.6363 52.752 44.295 53.6693 44.295 54.864V59.504C44.295 60.6987 44.6363 61.6267 45.319 62.288C46.0017 62.9493 46.9297 63.28 48.103 63.28C49.191 63.28 50.055 63.0027 50.695 62.448C51.335 61.8933 51.687 61.1147 51.751 60.112H55.207C55.143 62.032 54.471 63.5467 53.191 64.656C51.911 65.7653 50.215 66.32 48.103 66.32ZM65.4025 66.32C63.5678 66.32 62.1172 65.8507 61.0505 64.912C60.0052 63.952 59.4825 62.6507 59.4825 61.008C59.4825 59.344 60.0372 58.0427 61.1465 57.104C62.2772 56.144 63.8238 55.664 65.7865 55.664H70.6825V54.032C70.6825 53.072 70.3838 52.3253 69.7865 51.792C69.1892 51.2587 68.3465 50.992 67.2585 50.992C66.2985 50.992 65.4985 51.2053 64.8585 51.632C64.2185 52.0373 63.8452 52.5813 63.7385 53.264H60.3465C60.5385 51.6853 61.2638 50.4267 62.5225 49.488C63.8025 48.5493 65.4132 48.08 67.3545 48.08C69.4452 48.08 71.0985 48.6133 72.3145 49.68C73.5305 50.7253 74.1385 52.1547 74.1385 53.968V66H70.7785V62.768H70.2025L70.7785 62.128C70.7785 63.408 70.2878 64.432 69.3065 65.2C68.3252 65.9467 67.0238 66.32 65.4025 66.32ZM66.4265 63.664C67.6638 63.664 68.6772 63.3547 69.4665 62.736C70.2772 62.096 70.6825 61.2853 70.6825 60.304V58H65.8505C64.9545 58 64.2398 58.2453 63.7065 58.736C63.1945 59.2267 62.9385 59.8987 62.9385 60.752C62.9385 61.648 63.2478 62.3627 63.8665 62.896C64.4852 63.408 65.3385 63.664 66.4265 63.664ZM86.35 66.288C84.8993 66.288 83.6407 66.0107 82.574 65.456C81.5073 64.9013 80.686 64.112 80.11 63.088C79.534 62.064 79.246 60.8587 79.246 59.472V54.928C79.246 53.52 79.534 52.3147 80.11 51.312C80.686 50.288 81.5073 49.4987 82.574 48.944C83.6407 48.3893 84.8993 48.112 86.35 48.112C87.8007 48.112 89.0593 48.3893 90.126 48.944C91.1927 49.4987 92.014 50.288 92.59 51.312C93.166 52.3147 93.454 53.52 93.454 54.928V59.472C93.454 60.8587 93.166 62.064 92.59 63.088C92.014 64.112 91.1927 64.9013 90.126 65.456C89.0593 66.0107 87.8007 66.288 86.35 66.288ZM86.35 63.248C87.5233 63.248 88.43 62.928 89.07 62.288C89.71 61.6267 90.03 60.688 90.03 59.472V54.928C90.03 53.6907 89.71 52.752 89.07 52.112C88.43 51.472 87.5233 51.152 86.35 51.152C85.198 51.152 84.2913 51.472 83.63 52.112C82.99 52.752 82.67 53.6907 82.67 54.928V59.472C82.67 60.688 82.99 61.6267 83.63 62.288C84.2913 62.928 85.198 63.248 86.35 63.248Z" fill="#BD9F79"/>
</svg>