<svg xmlns="http://www.w3.org/2000/svg" fill="none" viewBox="0 0 75 75">
<g clip-path="url(#clip0_5_2)">
<path d="M49.6309 36.3033V48.2714H37.6628V36.3033L43.6469 33.9096L49.6309 36.3033Z" fill="#EF5352"/>
<path d="M43.6469 33.9096L37.6628 36.3032V48.2712H49.6309V36.3033L43.6469 33.9096ZM43.6469 27.5267H60.1612L57.1261 63.4309H17.8739L14.8387 27.5267H43.6469Z" fill="#F9EBDB"/>
<path d="M57.1261 63.4309L56.25 73.8034H18.7499L17.8739 63.4309H57.1261Z" fill="#BD9F79"/>
<path d="M13.9628 17.1542L14.8387 27.5267H60.1612L61.0372 17.1542H13.9628Z" fill="#BD9F79"/>
<path d="M63.431 10.7713H11.5691V17.1542H63.431V10.7713Z" fill="#F9EBDB"/>
<path d="M56.25 1.19678L58.6437 10.7713H16.3563L18.7499 1.19678H56.25Z" fill="#E8D6BD"/>
<path d="M63.431 9.57453H59.5781L57.4112 0.906594C57.2779 0.373682 56.7992 0 56.25 0H18.7499C18.2009 0 17.722 0.373682 17.5889 0.906594L15.4219 9.57453H11.5691C10.9082 9.57453 10.3723 10.1102 10.3723 10.7713V17.1542C10.3723 17.8153 10.9082 18.351 11.5691 18.351H12.8627L14.9621 43.1945C15.015 43.8188 15.5378 44.2905 16.1533 44.2905C16.187 44.2905 16.2212 44.2891 16.2554 44.2864C16.914 44.2308 17.403 43.6517 17.3472 42.9931L16.1413 28.7234H42.45V33.0992L37.2181 35.1919C36.7639 35.3738 36.4659 35.8137 36.4659 36.3031V48.2712C36.4659 48.9323 37.0018 49.468 37.6627 49.468H49.6308C50.2917 49.468 50.8276 48.9323 50.8276 48.2712V36.3033C50.8276 35.814 50.5296 35.374 50.0754 35.1921L44.8435 33.0994V28.7236H58.8583L56.0265 62.2343H18.9732L17.7502 47.7631C17.6945 47.1045 17.1147 46.6164 16.457 46.6713C15.7984 46.727 15.3094 47.306 15.3652 47.9646L17.5574 73.9041C17.6097 74.5238 18.1281 75.0001 18.7499 75.0001H56.25C56.8718 75.0001 57.3901 74.5238 57.4425 73.9041L62.1372 18.3512H63.4308C64.0918 18.3512 64.6276 17.8155 64.6276 17.1544V10.7713C64.6277 10.1102 64.0919 9.57453 63.431 9.57453ZM48.4343 47.0746H38.8598V37.1136L43.647 35.1988L48.4343 37.1136V47.0746ZM15.9392 26.3299L15.2649 18.3512H42.4501V26.3299H15.9392ZM19.8499 72.6066L19.1756 64.6279H55.8243L55.15 72.6066H19.8499ZM59.0607 26.3299H44.8435V18.3512H59.735L59.0607 26.3299ZM62.234 15.9575H12.7659V11.9681H16.3313C16.3486 11.9684 16.3657 11.9684 16.3832 11.9681H53.8564C54.5174 11.9681 55.0532 11.4324 55.0532 10.7713C55.0532 10.1102 54.5174 9.57453 53.8564 9.57453H17.8892L19.6843 2.39371H55.3156L57.4827 11.0616C57.616 11.5944 58.0947 11.9682 58.6437 11.9682H62.2342V15.9575H62.234Z" fill="#715F5C"/>
</g>
<defs>
<clipPath id="clip0_5_2">
<rect width="75" height="75" fill="white"/>
</clipPath>
</defs>
</svg>